<svg data-v-423bf9ae="" xmlns="http://www.w3.org/2000/svg" viewBox="0 0 65.68181795604302 60" class="font"><!----><!----><defs data-v-423bf9ae=""><linearGradient data-v-423bf9ae="" gradientTransform="rotate(25)" id="34002290-1c9c-4b88-bac7-cf7aa1de30ad" x1="0%" y1="0%" x2="100%" y2="0%"><stop data-v-423bf9ae="" offset="0%" style="stop-color: rgb(233, 13, 202); stop-opacity: 1;"></stop><stop data-v-423bf9ae="" offset="100%" style="stop-color: rgb(21, 54, 241); stop-opacity: 1;"></stop></linearGradient></defs><g data-v-423bf9ae="" id="6a37bf22-4b8d-4685-8940-bcf78846ff01" fill="url(#34002290-1c9c-4b88-bac7-cf7aa1de30ad)" transform="matrix(5.681817956043021,0,0,5.681817956043021,-3.5227274912776494,-37.613633741935175)"><path d="M0.62 17.18L0.62 17.18ZM0.70 10.53L3.50 10.18L3.50 17.18L0.70 17.18L0.70 10.53ZM2.10 9.59L2.10 9.59Q1.51 9.59 1.20 9.46L1.20 9.46L1.20 9.46Q0.88 9.34 0.75 9.02L0.75 9.02L0.75 9.02Q0.62 8.71 0.62 8.12L0.62 8.12L0.62 8.12Q0.62 7.27 0.93 6.94L0.93 6.94L0.93 6.94Q1.25 6.62 2.10 6.62L2.10 6.62L2.10 6.62Q2.94 6.62 3.25 6.94L3.25 6.94L3.25 6.94Q3.57 7.27 3.57 8.12L3.57 8.12L3.57 8.12Q3.57 8.69 3.44 9.01L3.44 9.01L3.44 9.01Q3.30 9.32 3.00 9.46L3.00 9.46L3.00 9.46Q2.69 9.59 2.10 9.59L2.10 9.59ZM8.18 14.28L7.70 14.28L7.70 17.18L4.90 17.18L4.90 8.08L7.70 7.87L7.70 12.61L8.15 12.61L9.16 10.18L12.11 10.18L10.49 13.51L12.18 17.18L9.25 17.18L8.18 14.28Z"></path></g><!----><!----></svg>