<?xml version="1.0" standalone="no"?>
<!DOCTYPE svg PUBLIC "-//W3C//DTD SVG 20010904//EN"
 "http://www.w3.org/TR/2001/REC-SVG-20010904/DTD/svg10.dtd">
<svg version="1.0" xmlns="http://www.w3.org/2000/svg"
 width="1056.000000pt" height="1056.000000pt" viewBox="0 0 1056.000000 1056.000000"
 preserveAspectRatio="xMidYMid meet">
<metadata>
Created by potrace 1.14, written by Peter Selinger 2001-2017
</metadata>
<g transform="translate(0.000000,1056.000000) scale(0.100000,-0.100000)"
fill="#000000" stroke="none">
<path d="M1129 10095 c-2 -2 -38 -6 -79 -9 -41 -3 -101 -10 -134 -15 -32 -6
-61 -10 -65 -9 -3 0 -9 -1 -13 -2 -5 -1 -12 -4 -18 -5 -5 -1 -11 -3 -12 -4 -2
-1 -19 -4 -38 -7 -128 -16 -365 -126 -456 -212 -66 -61 -132 -151 -163 -223
-11 -24 -27 -62 -37 -84 -9 -22 -16 -46 -15 -52 1 -7 -3 -13 -8 -13 -5 0 -8
-9 -6 -20 2 -11 0 -22 -6 -25 -5 -4 -9 -17 -9 -30 0 -13 -5 -27 -10 -30 -6 -4
-8 -10 -6 -14 3 -4 1 -25 -4 -47 -5 -21 -12 -59 -16 -84 -3 -25 -7 -56 -10
-70 -25 -151 -26 -698 0 -840 2 -14 7 -45 11 -70 7 -52 11 -76 19 -110 13 -58
18 -80 18 -87 0 -5 3 -12 7 -18 5 -5 11 -23 15 -40 12 -47 58 -148 79 -172 11
-13 17 -23 13 -23 -15 0 96 -124 142 -160 26 -19 48 -38 50 -42 2 -5 8 -8 14
-8 5 0 23 -9 39 -21 16 -11 29 -17 29 -14 0 4 10 1 23 -7 40 -27 252 -93 329
-103 13 -1 46 -6 73 -10 28 -4 68 -9 90 -10 22 -2 40 -4 40 -5 0 -10 457 -15
590 -6 117 8 231 20 245 26 3 1 8 2 13 1 4 -1 26 4 50 9 23 6 55 13 71 15 60
9 221 69 247 91 8 8 21 14 27 14 6 0 17 6 24 13 7 6 31 25 52 41 74 56 206
212 206 245 0 6 5 11 10 11 6 0 9 3 8 8 -1 4 5 23 14 42 17 36 44 118 54 161
52 225 67 383 66 674 -1 189 -5 256 -27 425 -10 80 -16 112 -33 174 -6 20 -8
36 -6 36 3 0 0 9 -6 21 -6 11 -13 28 -15 38 -6 33 -63 169 -92 219 -26 45 -68
102 -111 149 -23 25 -118 103 -126 103 -4 0 -24 11 -45 24 -21 14 -42 22 -45
19 -3 -4 -6 -1 -6 5 0 7 -8 12 -18 12 -10 0 -22 4 -27 8 -6 5 -30 15 -55 22
-25 8 -51 18 -57 23 -7 5 -13 7 -13 4 0 -3 -15 -1 -32 4 -32 10 -51 14 -100
23 -13 2 -34 7 -48 10 -14 3 -47 8 -75 12 -27 3 -63 8 -80 11 -36 5 -541 13
-546 8z"/>
<path d="M6428 8955 c-2 -1 -50 -6 -108 -9 -58 -4 -129 -9 -159 -12 -30 -3
-84 -7 -120 -9 -68 -4 -161 -11 -266 -20 -101 -8 -217 -17 -275 -20 -30 -2
-55 -4 -55 -5 0 -1 -27 -3 -60 -4 -33 -1 -66 -5 -72 -9 -8 -5 -13 -3 -13 3 0
6 -5 8 -12 4 -7 -4 -37 -9 -68 -10 -30 -1 -55 -3 -55 -4 0 0 -27 -3 -60 -5
-33 -2 -91 -7 -130 -9 -38 -3 -101 -8 -140 -11 -141 -10 -231 -16 -280 -20
-254 -20 -259 -21 -393 -30 -57 -4 -111 -8 -120 -10 -9 -2 -43 -4 -74 -4 l-58
-1 0 -4160 0 -4160 1278 0 1279 0 1 1308 c0 719 1 1315 1 1325 1 16 18 17 219
17 l217 0 42 -113 c64 -170 92 -247 110 -297 8 -25 20 -51 25 -57 6 -7 8 -13
5 -13 -7 0 13 -60 37 -113 8 -17 28 -70 44 -117 17 -47 36 -98 43 -115 6 -16
13 -34 15 -40 3 -11 43 -122 51 -145 4 -8 7 -17 8 -20 1 -3 7 -18 13 -33 7
-16 12 -33 12 -38 0 -5 5 -17 10 -27 6 -9 42 -105 80 -212 39 -107 77 -209 85
-227 8 -17 15 -36 15 -42 0 -6 6 -25 14 -43 21 -48 68 -171 70 -183 1 -5 7
-23 13 -40 7 -16 35 -93 63 -170 28 -77 55 -149 59 -160 5 -11 14 -33 19 -50
17 -50 94 -258 104 -285 23 -56 27 -66 33 -87 l6 -23 1339 0 1339 0 -35 77
c-20 43 -43 93 -50 111 -17 37 -52 115 -114 247 -23 50 -64 140 -91 200 -27
61 -54 117 -59 125 -6 8 -13 22 -16 30 -3 8 -11 26 -17 40 -6 14 -11 27 -12
30 -1 3 -15 32 -31 65 -15 33 -29 62 -30 65 0 3 -13 31 -27 63 -15 32 -27 62
-27 67 0 6 -4 10 -10 10 -5 0 -10 4 -10 10 0 10 -39 99 -140 315 -23 50 -48
104 -55 120 -16 35 -86 187 -120 260 -33 70 -83 180 -112 245 -14 30 -40 87
-58 125 -18 39 -34 75 -36 80 -1 6 -12 30 -25 55 -12 25 -37 79 -56 120 -19
41 -43 93 -54 115 -10 22 -19 42 -19 45 -1 3 -24 54 -53 113 -29 60 -52 110
-52 112 0 2 -25 56 -55 120 -30 65 -55 118 -55 120 0 2 -25 56 -56 121 -58
124 -74 174 -55 174 6 0 10 3 9 8 -1 4 29 70 66 147 38 77 70 142 71 145 0 3
13 29 28 57 15 29 27 55 27 58 0 3 23 49 50 102 28 54 50 104 50 111 0 6 4 12
9 12 5 0 12 10 16 23 4 12 8 24 9 27 1 3 29 59 61 125 32 66 58 123 57 128 -1
4 3 7 8 7 6 0 10 4 10 9 0 6 46 103 102 218 56 114 102 210 103 213 1 3 24 51
52 107 28 56 49 103 47 106 -3 2 2 10 11 17 8 7 15 16 15 21 0 8 204 432 221
459 5 8 14 26 20 40 5 14 28 62 50 107 22 45 39 85 39 89 -1 4 2 10 7 13 5 3
24 38 42 76 18 39 47 99 64 135 17 36 35 68 40 71 5 3 7 8 6 10 -2 2 19 49 46
104 27 55 50 102 50 105 4 14 59 126 64 130 3 3 7 12 9 21 2 14 -118 16 -1342
16 l-1344 0 -53 -126 c-30 -69 -54 -128 -54 -131 -1 -3 -9 -22 -18 -44 -9 -21
-17 -40 -17 -42 0 -2 -11 -28 -25 -58 -14 -30 -25 -57 -25 -60 0 -3 -12 -31
-27 -63 -14 -32 -26 -64 -26 -70 0 -7 -4 -13 -9 -13 -4 0 -7 -3 -6 -7 1 -5 -3
-19 -9 -33 -6 -14 -45 -108 -88 -210 -42 -102 -81 -190 -86 -196 -5 -6 -7 -13
-4 -16 3 -2 -6 -28 -20 -56 -14 -29 -25 -55 -25 -58 0 -3 -6 -20 -14 -37 -8
-18 -58 -135 -111 -262 -52 -126 -99 -239 -104 -250 -25 -57 -46 -110 -47
-115 -1 -6 -17 -45 -42 -103 -11 -23 -38 -89 -62 -147 -24 -58 -47 -110 -51
-115 -6 -8 -337 -13 -404 -6 -7 1 -10 729 -10 2163 0 2017 -1 2161 -17 2164
-9 1 -18 1 -20 -1z"/>
<path d="M2609 6846 c-3 -3 -65 -12 -149 -21 -14 -1 -52 -6 -85 -11 -33 -4
-67 -8 -75 -9 -8 -1 -44 -5 -80 -10 -36 -5 -72 -9 -80 -10 -14 -1 -116 -14
-170 -21 -28 -4 -110 -14 -155 -19 -16 -2 -30 -4 -30 -5 0 -1 -16 -3 -35 -5
-36 -3 -110 -11 -170 -20 -19 -2 -57 -7 -85 -10 -27 -4 -79 -10 -115 -15 -36
-5 -92 -12 -125 -15 -33 -3 -67 -8 -75 -10 -8 -3 -46 -7 -83 -10 -37 -4 -77
-8 -89 -10 -27 -6 -125 -18 -163 -21 -16 -1 -30 -3 -30 -4 0 -2 -11 -3 -106
-14 -31 -3 -87 -10 -124 -15 -38 -6 -71 -10 -74 -9 -3 0 -8 -1 -11 -2 -3 -1
-18 -3 -35 -5 -39 -5 -110 -13 -157 -19 -21 -2 -58 -7 -83 -10 -25 -3 -66 -9
-93 -12 -26 -3 -49 -8 -52 -11 -3 -3 -5 -1370 -6 -3039 l0 -3034 1278 0 1278
0 0 3200 c0 1760 -4 3200 -8 3200 -5 0 -11 -2 -13 -4z"/>
</g>
</svg>
